<svg width="28" height="28" viewBox="0 0 28 28" fill="none" xmlns="http://www.w3.org/2000/svg">
<g opacity="0.5">
<path d="M10.5026 2.86711V5.34478C7.08214 6.72935 4.66927 10.0827 4.66927 13.9997C4.66927 19.1544 8.84794 23.333 14.0026 23.333C17.9196 23.333 21.2729 20.9201 22.6575 17.4997H25.1352C23.6485 22.233 19.2265 25.6663 14.0026 25.6663C7.55928 25.6663 2.33594 20.4429 2.33594 13.9997C2.33594 8.77576 5.76931 4.35376 10.5026 2.86711ZM14.0026 2.33301C20.4459 2.33301 25.6693 7.55635 25.6693 13.9997C25.6693 14.3934 25.6498 14.7826 25.6116 15.1663H12.8359V2.39062C13.2197 2.35251 13.6089 2.33301 14.0026 2.33301ZM15.1693 4.73855V12.833H23.2637C22.7373 8.61117 19.3911 5.265 15.1693 4.73855Z" fill="white"/>
</g>
</svg>
