<svg width="85" height="84" viewBox="0 0 85 84" fill="none" xmlns="http://www.w3.org/2000/svg">
<rect x="1.48438" y="0.716797" width="82.1641" height="82.1641" rx="20.5375" fill="#111E2C" stroke="#474747"/>
<path d="M14.9912 70.3276C13.9455 70.3276 13.1774 70.0638 12.6869 69.5363C12.1965 69.0089 11.9512 68.1343 11.9512 66.9128C11.9512 65.9411 12.1132 64.8954 12.4371 63.7757C12.7702 62.6559 13.2977 61.6981 14.0195 60.9023C14.7506 60.0972 15.676 59.6946 16.7958 59.6946C17.4898 59.6946 18.0497 59.8473 18.4754 60.1527C18.9011 60.4581 19.1139 60.9254 19.1139 61.5547C19.1139 61.9526 19.0353 62.2673 18.8779 62.4986C18.7206 62.7207 18.4754 62.8318 18.1422 62.8318C17.8091 62.8318 17.5453 62.7114 17.351 62.4708C17.5176 62.3876 17.6656 62.221 17.7952 61.9711C17.9248 61.7213 17.9895 61.4621 17.9895 61.1938C17.9895 60.9439 17.9201 60.7403 17.7813 60.583C17.6518 60.4257 17.4389 60.347 17.1428 60.347C16.6523 60.347 16.185 60.6848 15.7408 61.3603C15.2966 62.0266 14.9357 62.8688 14.6581 63.8867C14.3897 64.9047 14.2555 65.8856 14.2555 66.8295C14.2555 67.5328 14.3758 68.0696 14.6164 68.4397C14.857 68.8099 15.292 68.995 15.9212 68.995C16.4672 68.995 16.9716 68.8747 17.4343 68.6341C17.897 68.3935 18.2949 68.0511 18.6281 67.6069L18.9473 67.7457C18.716 68.3287 18.3736 68.8145 17.9201 69.2032C17.4667 69.5919 16.9808 69.8787 16.4626 70.0638C15.9444 70.2397 15.4539 70.3276 14.9912 70.3276ZM20.614 70.161C19.9292 70.161 19.3879 69.9852 18.99 69.6335C18.592 69.2819 18.3931 68.7266 18.3931 67.9678C18.3931 67.3385 18.5226 66.6398 18.7817 65.8717C19.0409 65.1036 19.4573 64.442 20.031 63.8867C20.6048 63.3222 21.3266 63.04 22.1965 63.04C23.381 63.04 23.9733 63.7803 23.9733 65.261V65.2748C24.001 65.2841 24.0519 65.2887 24.126 65.2887C24.4314 65.2887 24.783 65.2101 25.1809 65.0527C25.5789 64.8862 25.9398 64.6872 26.2637 64.4558L26.3886 64.8306C26.1202 65.1175 25.7686 65.3627 25.3336 65.5663C24.9079 65.7607 24.4406 65.8995 23.9316 65.9828C23.8576 66.8249 23.6679 67.5606 23.3625 68.1899C23.0571 68.8191 22.6638 69.305 22.1826 69.6474C21.7014 69.9898 21.1785 70.161 20.614 70.161ZM21.1693 68.9117C21.3914 68.9117 21.6135 68.7868 21.8356 68.5369C22.0577 68.2778 22.252 67.9308 22.4186 67.4958C22.5852 67.0516 22.7055 66.5612 22.7795 66.0244C22.5296 65.9689 22.4047 65.7746 22.4047 65.4414C22.4047 65.062 22.5482 64.8121 22.835 64.6918C22.8165 64.3864 22.7703 64.1782 22.6962 64.0672C22.6222 63.9469 22.4926 63.8867 22.3075 63.8867C22.0022 63.8867 21.706 64.1088 21.4192 64.553C21.1323 64.9972 20.9009 65.5293 20.7251 66.1493C20.5493 66.7694 20.4614 67.3154 20.4614 67.7873C20.4614 68.2315 20.5123 68.5323 20.614 68.6896C20.7158 68.8377 20.9009 68.9117 21.1693 68.9117ZM33.1272 70.1888C32.5627 70.1888 32.1463 70.0407 31.8779 69.7446C31.6188 69.4392 31.4893 69.0644 31.4893 68.6202C31.4893 68.4259 31.5124 68.2084 31.5587 67.9678C31.6049 67.7179 31.6512 67.4773 31.6975 67.246C31.753 67.0146 31.79 66.8665 31.8085 66.8018C31.8826 66.4779 31.952 66.1586 32.0168 65.844C32.0815 65.5293 32.1139 65.2748 32.1139 65.0805C32.1139 64.6085 31.9474 64.3726 31.6142 64.3726C31.3736 64.3726 31.1608 64.4929 30.9757 64.7335C30.7906 64.9648 30.6425 65.2702 30.5315 65.6496L29.5876 70.1055H27.5887L28.602 65.3165C28.6298 65.2054 28.6436 65.0897 28.6436 64.9694C28.6436 64.5623 28.5048 64.3587 28.2272 64.3587C27.9681 64.3587 27.7414 64.479 27.547 64.7196C27.3619 64.9509 27.2139 65.261 27.1028 65.6496L26.1589 70.1055H24.16L25.6314 63.1649H27.6303L27.4776 63.8867C27.9496 63.3592 28.5141 63.0955 29.1711 63.0955C29.9855 63.0955 30.4621 63.4934 30.6009 64.2893C31.1099 63.5027 31.753 63.1094 32.5304 63.1094C33.0023 63.1094 33.3771 63.2389 33.6547 63.498C33.9324 63.7572 34.0712 64.1505 34.0712 64.6779C34.0712 64.9463 34.0388 65.2471 33.974 65.5802C33.9092 65.9041 33.8167 66.302 33.6964 66.774C33.6223 67.0609 33.5529 67.3431 33.4882 67.6207C33.4326 67.8891 33.4049 68.102 33.4049 68.2593C33.4049 68.4444 33.4465 68.5878 33.5298 68.6896C33.6131 68.7914 33.7565 68.8423 33.9601 68.8423C34.2377 68.8423 34.4598 68.7451 34.6264 68.5508C34.793 68.3472 34.9596 68.0372 35.1261 67.6207H35.7091C35.3667 68.6387 34.9688 69.3235 34.5154 69.6752C34.0712 70.0176 33.6085 70.1888 33.1272 70.1888ZM43.5652 70.1888C43.0007 70.1888 42.5843 70.0407 42.3159 69.7446C42.0568 69.4392 41.9272 69.0644 41.9272 68.6202C41.9272 68.4259 41.9504 68.2084 41.9966 67.9678C42.0429 67.7179 42.0892 67.4773 42.1355 67.246C42.191 67.0146 42.228 66.8665 42.2465 66.8018C42.3205 66.4779 42.3899 66.1586 42.4547 65.844C42.5195 65.5293 42.5519 65.2748 42.5519 65.0805C42.5519 64.6085 42.3853 64.3726 42.0522 64.3726C41.8116 64.3726 41.5987 64.4929 41.4136 64.7335C41.2286 64.9648 41.0805 65.2702 40.9694 65.6496L40.0255 70.1055H38.0266L39.04 65.3165C39.0677 65.2054 39.0816 65.0897 39.0816 64.9694C39.0816 64.5623 38.9428 64.3587 38.6652 64.3587C38.4061 64.3587 38.1793 64.479 37.985 64.7196C37.7999 64.9509 37.6518 65.261 37.5408 65.6496L36.5969 70.1055H34.598L36.0694 63.1649H38.0683L37.9156 63.8867C38.3875 63.3592 38.952 63.0955 39.6091 63.0955C40.4234 63.0955 40.9 63.4934 41.0388 64.2893C41.5478 63.5027 42.191 63.1094 42.9683 63.1094C43.4403 63.1094 43.8151 63.2389 44.0927 63.498C44.3703 63.7572 44.5091 64.1505 44.5091 64.6779C44.5091 64.9463 44.4767 65.2471 44.412 65.5802C44.3472 65.9041 44.2546 66.302 44.1343 66.774C44.0603 67.0609 43.9909 67.3431 43.9261 67.6207C43.8706 67.8891 43.8428 68.102 43.8428 68.2593C43.8428 68.4444 43.8845 68.5878 43.9678 68.6896C44.0511 68.7914 44.1945 68.8423 44.3981 68.8423C44.6757 68.8423 44.8978 68.7451 45.0644 68.5508C45.231 68.3472 45.3975 68.0372 45.5641 67.6207H46.1471C45.8047 68.6387 45.4068 69.3235 44.9533 69.6752C44.5091 70.0176 44.0464 70.1888 43.5652 70.1888ZM46.9377 70.1888C46.4935 70.1888 46.1326 70.0499 45.855 69.7723C45.5866 69.4947 45.4524 69.0783 45.4524 68.523C45.4524 68.2917 45.4894 67.9909 45.5634 67.6207L46.5074 63.1649H48.5062L47.5068 67.8845C47.479 68.0233 47.4652 68.1529 47.4652 68.2732C47.4652 68.6526 47.604 68.8423 47.8816 68.8423C48.1407 68.8423 48.3628 68.7359 48.5479 68.523C48.733 68.3009 48.881 68.0002 48.9921 67.6207L49.936 63.1649H51.9349L50.9354 67.8845C50.8984 68.0233 50.8799 68.1714 50.8799 68.3287C50.8799 68.5138 50.9216 68.6479 51.0049 68.7312C51.0974 68.8053 51.2455 68.8423 51.4491 68.8423C51.7082 68.8423 51.9303 68.7312 52.1153 68.5091C52.3097 68.287 52.4624 67.9909 52.5734 67.6207H53.1564C52.814 68.6202 52.3883 69.3004 51.8794 69.6613C51.3796 70.0129 50.8753 70.1888 50.3663 70.1888C49.9684 70.1888 49.6491 70.0777 49.4085 69.8556C49.1772 69.6335 49.0384 69.305 48.9921 68.87C48.6774 69.379 48.3443 69.7261 47.9926 69.9111C47.6502 70.0962 47.2986 70.1888 46.9377 70.1888ZM57.5829 70.1888C57.0184 70.1888 56.602 70.0407 56.3336 69.7446C56.0745 69.4392 55.9449 69.0644 55.9449 68.6202C55.9449 68.4259 55.968 68.2084 56.0143 67.9678C56.0606 67.7179 56.1069 67.4773 56.1531 67.246C56.2087 67.0146 56.2457 66.8665 56.2642 66.8018C56.3382 66.4779 56.4076 66.1586 56.4724 65.844C56.5372 65.5293 56.5696 65.2748 56.5696 65.0805C56.5696 64.6085 56.403 64.3726 56.0698 64.3726C55.8292 64.3726 55.6164 64.4929 55.4313 64.7335C55.2462 64.9648 55.0982 65.2702 54.9871 65.6496L54.0432 70.1055H52.0443L53.5157 63.1649H55.5146L55.3619 63.8867C55.8246 63.3685 56.366 63.1094 56.986 63.1094C57.458 63.1094 57.8327 63.2389 58.1104 63.498C58.388 63.7572 58.5268 64.1505 58.5268 64.6779C58.5268 64.9463 58.4944 65.2471 58.4296 65.5802C58.3649 65.9041 58.2723 66.302 58.152 66.774C58.078 67.0609 58.0086 67.3431 57.9438 67.6207C57.8883 67.8891 57.8605 68.102 57.8605 68.2593C57.8605 68.4444 57.9022 68.5878 57.9854 68.6896C58.0687 68.7914 58.2122 68.8423 58.4158 68.8423C58.6934 68.8423 58.9155 68.7451 59.0821 68.5508C59.2486 68.3472 59.4152 68.0372 59.5818 67.6207H60.1648C59.8224 68.6387 59.4245 69.3235 58.971 69.6752C58.5268 70.0176 58.0641 70.1888 57.5829 70.1888ZM61.8983 62.4153C61.5929 62.4153 61.3338 62.3089 61.121 62.0961C60.9081 61.8832 60.8017 61.6241 60.8017 61.3187C60.8017 61.0133 60.9081 60.7542 61.121 60.5414C61.3338 60.3193 61.5929 60.2082 61.8983 60.2082C62.2037 60.2082 62.4628 60.3193 62.6756 60.5414C62.8977 60.7542 63.0088 61.0133 63.0088 61.3187C63.0088 61.6241 62.8977 61.8832 62.6756 62.0961C62.4628 62.3089 62.2037 62.4153 61.8983 62.4153ZM60.9544 70.1888C60.5102 70.1888 60.1493 70.0499 59.8717 69.7723C59.6033 69.4947 59.4691 69.0783 59.4691 68.523C59.4691 68.2917 59.5061 67.9909 59.5801 67.6207L60.5241 63.1649H62.5229L61.5235 67.8845C61.4865 68.0233 61.468 68.1714 61.468 68.3287C61.468 68.5138 61.5096 68.6479 61.5929 68.7312C61.6855 68.8053 61.8335 68.8423 62.0371 68.8423C62.3055 68.8423 62.5553 68.7312 62.7867 68.5091C63.018 68.2778 63.1846 67.9817 63.2864 67.6207H63.8694C63.527 68.6202 63.0874 69.3004 62.5507 69.6613C62.014 70.0129 61.4819 70.1888 60.9544 70.1888ZM64.6551 70.1888C64.2109 70.1888 63.85 70.0499 63.5724 69.7723C63.304 69.4947 63.1698 69.0783 63.1698 68.523C63.1698 68.2917 63.2068 67.9909 63.2809 67.6207L64.1137 63.7201H63.6557L63.7667 63.1649H64.2248L64.6412 61.2493L66.6956 60.9717L66.2237 63.1649H67.0566L66.9455 63.7201H66.1126L65.2242 67.8845C65.1872 68.0233 65.1687 68.1714 65.1687 68.3287C65.1687 68.5138 65.2104 68.6479 65.2936 68.7312C65.3862 68.8053 65.5343 68.8423 65.7378 68.8423C66.0062 68.8423 66.2561 68.7312 66.4874 68.5091C66.7188 68.2778 66.8853 67.9817 66.9871 67.6207H67.5702C67.2278 68.6202 66.7882 69.3004 66.2514 69.6613C65.7147 70.0129 65.1826 70.1888 64.6551 70.1888ZM69.1471 73.5758C68.7121 73.5758 68.3281 73.4323 67.9949 73.1454C67.671 72.8678 67.5091 72.5115 67.5091 72.0766C67.5091 71.6694 67.6109 71.3363 67.8145 71.0771C68.0181 70.818 68.2818 70.6144 68.6057 70.4664C68.9296 70.3183 69.3645 70.161 69.9105 69.9944L70.0493 69.3836C69.5774 69.9204 69.0129 70.1888 68.3558 70.1888C67.9116 70.1888 67.5507 70.0499 67.2731 69.7723C67.0047 69.4947 66.8706 69.0783 66.8706 68.523C66.8706 68.2917 66.9076 67.9909 66.9816 67.6207L67.9255 63.1649H69.9244L68.925 67.8845C68.8972 67.9955 68.8833 68.1112 68.8833 68.2315C68.8833 68.6387 69.0221 68.8423 69.2998 68.8423C69.5589 68.8423 69.781 68.7359 69.9661 68.523C70.1511 68.3009 70.2992 68.0002 70.4103 67.6207L71.3542 63.1649H73.3669L71.6734 71.216C71.4884 72.1044 71.1598 72.7198 70.6879 73.0622C70.2252 73.4046 69.7116 73.5758 69.1471 73.5758ZM68.8278 72.3403C68.9944 72.3403 69.1517 72.2524 69.2998 72.0766C69.4478 71.91 69.5635 71.637 69.6468 71.2576L69.8134 70.4386C69.3229 70.6052 68.9435 70.7995 68.6751 71.0216C68.4067 71.2437 68.2726 71.5306 68.2726 71.8823C68.2726 71.9933 68.3281 72.0951 68.4391 72.1876C68.5502 72.2894 68.6797 72.3403 68.8278 72.3403Z" fill="url(#paint0_linear_313_2882)"/>
<circle cx="58.5457" cy="18.9617" r="5.26446" fill="white"/>
<g filter="url(#filter0_b_313_2882)">
<rect x="50.5773" y="29.4933" width="15.9427" height="23.8383" rx="7.97135" stroke="url(#paint1_linear_313_2882)" stroke-width="5.54529"/>
</g>
<circle cx="42.5301" cy="18.9617" r="5.26446" fill="white"/>
<g filter="url(#filter1_b_313_2882)">
<rect x="34.5617" y="29.4933" width="15.9427" height="23.8383" rx="7.97135" stroke="url(#paint2_linear_313_2882)" stroke-width="5.54529"/>
</g>
<circle cx="26.5223" cy="18.9617" r="5.26446" fill="white"/>
<g filter="url(#filter2_b_313_2882)">
<rect x="18.5539" y="29.4933" width="15.9427" height="23.8383" rx="7.97135" stroke="url(#paint3_linear_313_2882)" stroke-width="5.54529"/>
</g>
<defs>
<filter id="filter0_b_313_2882" x="44.926" y="23.842" width="27.2418" height="35.1403" filterUnits="userSpaceOnUse" color-interpolation-filters="sRGB">
<feFlood flood-opacity="0" result="BackgroundImageFix"/>
<feGaussianBlur in="BackgroundImageFix" stdDeviation="1.43937"/>
<feComposite in2="SourceAlpha" operator="in" result="effect1_backgroundBlur_313_2882"/>
<feBlend mode="normal" in="SourceGraphic" in2="effect1_backgroundBlur_313_2882" result="shape"/>
</filter>
<filter id="filter1_b_313_2882" x="28.9103" y="23.842" width="27.2418" height="35.1403" filterUnits="userSpaceOnUse" color-interpolation-filters="sRGB">
<feFlood flood-opacity="0" result="BackgroundImageFix"/>
<feGaussianBlur in="BackgroundImageFix" stdDeviation="1.43937"/>
<feComposite in2="SourceAlpha" operator="in" result="effect1_backgroundBlur_313_2882"/>
<feBlend mode="normal" in="SourceGraphic" in2="effect1_backgroundBlur_313_2882" result="shape"/>
</filter>
<filter id="filter2_b_313_2882" x="12.9025" y="23.842" width="27.2418" height="35.1403" filterUnits="userSpaceOnUse" color-interpolation-filters="sRGB">
<feFlood flood-opacity="0" result="BackgroundImageFix"/>
<feGaussianBlur in="BackgroundImageFix" stdDeviation="1.43937"/>
<feComposite in2="SourceAlpha" operator="in" result="effect1_backgroundBlur_313_2882"/>
<feBlend mode="normal" in="SourceGraphic" in2="effect1_backgroundBlur_313_2882" result="shape"/>
</filter>
<linearGradient id="paint0_linear_313_2882" x1="42.6875" y1="56.1055" x2="42.6875" y2="73.1055" gradientUnits="userSpaceOnUse">
<stop stop-color="white" stop-opacity="0.59"/>
<stop offset="1" stop-color="white"/>
</linearGradient>
<linearGradient id="paint1_linear_313_2882" x1="58.5487" y1="26.7207" x2="58.5487" y2="56.1043" gradientUnits="userSpaceOnUse">
<stop stop-color="white"/>
<stop offset="1" stop-color="white" stop-opacity="0.5"/>
</linearGradient>
<linearGradient id="paint2_linear_313_2882" x1="42.5331" y1="26.7207" x2="42.5331" y2="56.1043" gradientUnits="userSpaceOnUse">
<stop stop-color="white"/>
<stop offset="1" stop-color="white" stop-opacity="0.5"/>
</linearGradient>
<linearGradient id="paint3_linear_313_2882" x1="26.5252" y1="26.7207" x2="26.5252" y2="56.1043" gradientUnits="userSpaceOnUse">
<stop stop-color="white"/>
<stop offset="1" stop-color="white" stop-opacity="0.5"/>
</linearGradient>
</defs>
</svg>
