<svg width="66" height="32" viewBox="0 0 66 32" fill="none" xmlns="http://www.w3.org/2000/svg">
<path d="M0.585963 2.64472C0.580444 1.53628 1.47748 0.634764 2.58594 0.634766L29.6246 0.634819C31.4036 0.634821 32.2972 2.78339 31.0428 4.04497L4.13892 31.1036C2.88404 32.3657 0.729541 31.4832 0.720681 29.7034L0.585963 2.64472Z" fill="url(#paint0_linear_294_2688)"/>
<path d="M34.586 2.64472C34.5804 1.53628 35.4775 0.634764 36.5859 0.634766L63.6246 0.634817C65.4036 0.634819 66.2972 2.78339 65.0428 4.04497L38.1389 31.1036C36.884 32.3657 34.7295 31.4832 34.7207 29.7034L34.586 2.64472Z" fill="url(#paint1_linear_294_2688)"/>
<defs>
<linearGradient id="paint0_linear_294_2688" x1="-8.49969" y1="30.4994" x2="35.0003" y2="3.49939" gradientUnits="userSpaceOnUse">
<stop stop-color="#595A5D"/>
<stop offset="1" stop-color="#D9D9D9" stop-opacity="0"/>
</linearGradient>
<linearGradient id="paint1_linear_294_2688" x1="25.5" y1="30.5" x2="69" y2="3.49999" gradientUnits="userSpaceOnUse">
<stop stop-color="#595A5D"/>
<stop offset="1" stop-color="#D9D9D9" stop-opacity="0"/>
</linearGradient>
</defs>
</svg>
